<?xml version="1.0" encoding="utf-8"?>
<!-- Generator: Adobe Illustrator 21.1.0, SVG Export Plug-In . SVG Version: 6.00 Build 0)  -->
<svg version="1.1" id="Layer_1" xmlns="http://www.w3.org/2000/svg" xmlns:xlink="http://www.w3.org/1999/xlink" x="0px" y="0px"
	 viewBox="0 0 800 800" style="enable-background:new 0 0 800 800;" xml:space="preserve">
<style type="text/css">
	.st0{fill:#F80E19;}
</style>
<g>
	<path class="st0" d="M323.6,510.2c0-13.5-10.9-24.4-24.4-24.4H151.6c-13.5,0-24.4,10.9-24.4,24.4c0,13.5,10.9,24.4,24.4,24.4h147.7
		C312.7,534.5,323.6,523.6,323.6,510.2z"/>
	<path class="st0" d="M658.4,153.5h-40.8l45.1-105.6c5.3-12.4-0.5-26.7-12.8-32c-12.4-5.3-26.7,0.5-32,12.8L501.6,301.2H92.1v-49.5
		c0-27.3,22.2-49.5,49.5-49.5H400c13.5,0,24.4-10.9,24.4-24.4c0-13.5-10.9-24.4-24.4-24.4H141.6c-54.1,0-98.2,44.1-98.2,98.2v295.3
		c0,54.1,44.1,98.2,98.2,98.2h73.8c13.5,0,24.4-10.9,24.4-24.4c0-13.5-10.9-24.4-24.4-24.4h-73.8c-27.3,0-49.5-22.2-49.5-49.5V349.9
		h388.7L304.5,763.1c-5.3,12.4,0.5,26.7,12.8,32c3.1,1.3,6.4,2,9.6,2c9.5,0,18.5-5.6,22.4-14.8l58.4-136.9h250.7
		c54.1,0,98.2-44.1,98.2-98.2V251.7C756.6,197.6,712.6,153.5,658.4,153.5z M707.9,547.1c0,27.3-22.2,49.5-49.5,49.5H428.6
		l105.3-246.6h174.1V547.1z M707.9,301.2H554.6l42.2-98.9h61.6c27.3,0,49.5,22.2,49.5,49.5V301.2z"/>
</g>
</svg>
