<?xml version="1.0" encoding="UTF-8"?>
<svg id="Layer_1" xmlns="http://www.w3.org/2000/svg" version="1.1" viewBox="0 0 800 800">
  <!-- Generator: Adobe Illustrator 29.3.1, SVG Export Plug-In . SVG Version: 2.1.0 Build 151)  -->
  <defs>
    <style>
      .st0 {
        fill: none;
        stroke: #00c46f;
        stroke-miterlimit: 10;
        stroke-width: 25px;
      }

      .st1 {
        fill: #00c46f;
      }
    </style>
  </defs>
  <path class="st1" d="M580.3,320.1l-11.2-82.4c-6-44-39.3-75.9-79.3-75.9h-189.3c-40,0-73.3,31.9-79.3,75.9l-11.2,82.4c-23.5,4-41.3,26.4-41.3,53.1v120.6c0,23.4,16.9,42.6,38,43.6v45.7c0,14.6,11,26.4,24.5,26.4h66.9c13.5,0,24.5-11.9,24.5-26.4v-45.6h144.7v45.6c0,14.6,11,26.4,24.5,26.4h66.9c13.5,0,24.5-11.9,24.5-26.4v-45.7c21.1-1,38-20.2,38-43.6v-120.6c0-26.8-17.8-49.2-41.3-53.1ZM516.6,556.7v-19.2h17.8v19.2h-17.8ZM255.9,556.7v-19.2h17.8v19.2h-17.8ZM259.8,319.5l10-74.1c2.4-17.8,15.3-30.7,30.7-30.7h189.3c15.4,0,28.3,12.9,30.7,30.7l10.1,74.1h-270.8ZM572.5,373.2v111.3H217.9v-111.3c0-.4.1-.7.2-.9h354.1c.1.2.2.5.2.9Z"/>
  <rect class="st0" x="75.3" y="80.1" width="639.8" height="639.8" rx="157.1" ry="157.1"/>
</svg>