<?xml version="1.0" encoding="UTF-8"?>
<svg id="Layer_1" xmlns="http://www.w3.org/2000/svg" version="1.1" viewBox="0 0 800 800">
  <!-- Generator: Adobe Illustrator 29.3.1, SVG Export Plug-In . SVG Version: 2.1.0 Build 151)  -->
  <defs>
    <style>
      .st0 {
        fill: #00c46f;
      }
    </style>
  </defs>
  <g>
    <path class="st0" d="M632.6,630.9c0,1.1-.9,1.7-1.7,1.7h-110v41.7h153.4v-157.4h-41.7v114Z"/>
    <path class="st0" d="M520.9,125.7v41.7h110c1.1,0,1.7.9,1.7,1.7v106.1h41.7V125.7h-153.4Z"/>
    <path class="st0" d="M167.4,169.3c0-1.1.9-1.7,1.7-1.7h110v-41.9H125.7v149.7h41.7v-106.1Z"/>
    <path class="st0" d="M167.6,630.9v-114h-41.9v157.4h153.4v-41.7h-109.8c-1.1,0-1.7-.9-1.7-1.7Z"/>
  </g>
  <path class="st0" d="M544.6,331l-9.3-68.6c-5-36.7-32.8-63.3-66-63.3h-157.8c-33.3,0-61.1,26.6-66,63.3l-9.3,68.6c-19.6,3.3-34.4,22-34.4,44.3v100.5c0,19.5,14.1,35.5,31.7,36.3v38.1c0,12.1,9.2,22,20.5,22h55.7c11.3,0,20.5-9.9,20.5-22v-38h120.6v38c0,12.1,9.2,22,20.5,22h55.7c11.3,0,20.5-9.9,20.5-22v-38.1c17.6-.8,31.7-16.8,31.7-36.3v-100.5c0-22.3-14.8-41-34.4-44.3ZM491.6,528.2v-16h14.8v16h-14.8ZM274.3,528.2v-16h14.8v16h-14.8ZM277.5,330.5l8.4-61.7c2-14.8,12.8-25.6,25.6-25.6h157.8c12.8,0,23.6,10.8,25.6,25.6l8.4,61.7h-225.7ZM538.1,375.3v92.8H242.6v-92.8c0-.3,0-.6.2-.8h295.1c0,.2.2.4.2.8Z"/>
</svg>