<svg version="1.1" id="Layer_1" xmlns="http://www.w3.org/2000/svg" x="0" y="0" viewBox="0 0 800 800" xml:space="preserve"><style>.st0{fill:#f80e19}</style><path class="st0" d="M426 250c0-14.3-11.7-26-26-26s-26 11.7-26 26v7h-8.7c-41 0-74.3 34.5-74.3 77 0 21.7 5.8 39.2 17.2 52 10.6 11.9 24 17.6 33.1 20.9l32.7 11.4v72.4h-1.7c-16.4 0-29.7-14.5-29.7-32.3 0-14.3-11.7-26-26-26s-26 11.7-26 26c0 46.5 36.6 84.3 81.7 84.3h1.7v7.3c0 14.3 11.7 26 26 26s26-11.7 26-26v-7.3h9c41 0 74.3-34.5 74.3-77 0-21.7-5.8-39.2-17.2-52-10.6-11.9-24-17.6-33.2-20.9l-33-11.5V309h2c16.4 0 29.7 14.5 29.7 32.3 0 14.3 11.7 26 26 26s26-11.7 26-26c0-46.5-36.6-84.3-81.7-84.3h-2v-7zm9 240.7h-9v-54.3l15.7 5.5c10.8 3.9 15.6 6.3 15.6 23.8 0 13.8-10 25-22.3 25zM365.3 309h8.7v54.2l-15.3-5.4C347 353.7 343 351.4 343 334c0-13.8 10-25 22.3-25z"/><path class="st0" d="M733.3 374c-14.3 0-26 11.7-26 26 0 169.5-137.9 307.3-307.3 307.3-169.5 0-307.3-137.8-307.3-307.3S230.5 92.7 400 92.7c14.3 0 26-11.7 26-26s-11.7-26-26-26c-48.5 0-95.5 9.5-139.8 28.3-42.8 18.1-81.2 44-114.2 77s-58.9 71.4-77 114.2C50.2 304.5 40.7 351.5 40.7 400c0 48.5 9.5 95.5 28.3 139.8 18.1 42.8 44 81.2 77 114.2s71.4 58.9 114.2 77c44.3 18.8 91.4 28.3 139.8 28.3 48.5 0 95.5-9.5 139.8-28.3 42.8-18.1 81.2-44 114.2-77s58.9-71.4 77-114.2c18.8-44.3 28.3-91.4 28.3-139.8 0-14.3-11.6-26-26-26zM641 125.5h3.7c5.4 0 18.7-1.8 24.1-18.1 2.7-7.9 9.2-11.7 19.8-11.7 13.1 0 21.3 6.3 21.3 16.5 0 2.6-.8 11.2-11.3 14.7-42 14.1-41.7 44.3-41.4 76.2v1c0 14.2 9.9 24.1 24.1 24.1h2.6c14.2 0 24.1-10.1 24.1-24.6 0-12.4.2-20.9 1.3-24.9.6-2.4 1.1-2.5 3.6-3.4 40.3-13.7 48.7-41.8 48.7-63 0-19-6.4-35.4-18.6-47.5-13-12.9-31.8-19.7-54.3-19.7-36.2 0-64 20.7-70.8 52.8l-.1.4c-1.3 7.3.3 14.1 4.6 19.3 4.2 5.1 10.9 7.9 18.6 7.9z"/><path class="st0" d="M681.8 250.1c-17 0-30.9 13.7-30.9 30.6 0 17 13.9 30.9 30.9 30.9 16.9 0 30.6-13.9 30.6-30.9 0-16.9-13.7-30.6-30.6-30.6z"/></svg>