<?xml version="1.0" encoding="UTF-8"?>
<svg id="Layer_1" xmlns="http://www.w3.org/2000/svg" version="1.1" viewBox="0 0 800 800">
  <!-- Generator: Adobe Illustrator 29.3.1, SVG Export Plug-In . SVG Version: 2.1.0 Build 151)  -->
  <defs>
    <style>
      .st0 {
        fill: none;
        stroke: red;
        stroke-linecap: square;
        stroke-miterlimit: 10;
        stroke-width: 30px;
      }

      .st1 {
        fill: #939598;
      }
    </style>
  </defs>
  <path class="st1" d="M565.7,385.1c6.4-37.3,4.3-65.4-6.3-83.6-5.7-9.8-13.6-16.9-23.5-21.1-9.1-25.6-26.5-47-50.6-62.2-24-15.1-54.3-23.4-85.3-23.4-.3,0-.5,0-.7,0h-.3c-31.3.2-61.8,8.8-85.9,24.3-23.9,15.4-41,37-49.8,62.7-9.8,4.3-17.6,11.5-23.2,21.3-10.3,18-12.2,45.5-5.7,81.9,0,0,5.1,31,14,54.7,4.3,13.3,8.2,23.4,10,28,10.5,42,29.7,77,55.4,101.2,25.2,23.7,55.3,36.2,87,36.2h.7c31.9-.2,62.1-13,87.2-37.2,25.4-24.4,44.2-59.6,54.2-101.8,1.7-4.4,5.2-14,9.2-26.5,8-21.2,13.6-54.7,13.6-54.7ZM498.8,439.9c.8,6,1.6,12.2,2.3,18.6-15.7,63.1-54.8,104-99.8,104.2-.2,0-.4,0-.7,0-44.8,0-84.2-40.5-100.5-103.2.6-6.8,1.4-13.3,2.2-19.7,2.6-19,6.4-37.2,11.6-54.7,1.6-5.1,3.4-9.8,5.2-14.3,6-14.4,11.6-21.6,14.4-24.7,29.1-6.4,103.5-6.7,132.7-.7,2.9,3,8.5,10.2,14.7,24.5,2,4.7,3.9,9.8,5.7,15.1,0,0,8.6,29.5,12.1,54.7ZM525.5,366.9c-3.4-9.8-7.3-18.7-11.5-26.6-12.2-22.9-24-30.9-27.4-32.8-1.5-.8-3-1.5-4.7-2-34.6-9.7-129.8-9.2-164.3.9-1.6.5-3.1,1.1-4.7,2-3.3,1.9-15,10-27,33.1-4.1,8-7.8,16.9-11.2,26.7-4.1-29.2.4-40.6,2.3-43.9,1.5-2.7,3.4-3.9,6.7-4.4,8.7-1.3,15.6-7.7,17.6-16.3,10.4-45.4,56.7-66,97.9-66.2.2,0,.5,0,.7,0h.2c41,0,87.2,20.2,98.1,65.2,2.1,8.6,9.1,14.9,17.7,16,3.3.5,5.2,1.6,6.8,4.3,1.9,3.3,6.5,14.6,2.8,43.8Z"/>
  <g>
    <path class="st1" d="M632.6,630.9c0,1.1-.9,1.7-1.7,1.7h-110v41.7h153.4v-157.4h-41.7v114Z"/>
    <path class="st1" d="M520.9,125.7v41.7h110c1.1,0,1.7.9,1.7,1.7v106.1h41.7V125.7h-153.4Z"/>
    <path class="st1" d="M167.4,169.3c0-1.1.9-1.7,1.7-1.7h110v-41.9H125.7v149.7h41.7v-106.1Z"/>
    <path class="st1" d="M167.6,630.9v-114h-41.9v157.4h153.4v-41.7h-109.8c-1.1,0-1.7-.9-1.7-1.7Z"/>
  </g>
  <line class="st0" x1="133.1" y1="134.1" x2="664.1" y2="665.1"/>
  <line class="st0" x1="664.1" y1="134.1" x2="133.1" y2="665.1"/>
</svg>