<?xml version="1.0" encoding="utf-8"?>
<!-- Generator: Adobe Illustrator 21.1.0, SVG Export Plug-In . SVG Version: 6.00 Build 0)  -->
<svg version="1.1" id="Layer_1" xmlns="http://www.w3.org/2000/svg" xmlns:xlink="http://www.w3.org/1999/xlink" x="0px" y="0px"
	 viewBox="0 0 800 800" style="enable-background:new 0 0 800 800;" xml:space="preserve">
<style type="text/css">
	.st0{fill:#F80E19;}
</style>
<path class="st0" d="M347,462.4l42.7,42.7c1.5,1.5,0.4,4.2-1.7,4.2h-97.2c-45.3,0-82,36.7-82,82v110.1c0,14.7-11.9,26.5-26.5,26.5
	h-1.5c-14.7,0-26.5-11.9-26.5-26.5V591.2c0-75.4,61.2-136.6,136.6-136.6h37.5C335.3,454.6,342,457.4,347,462.4z M707.9,706.8
	l-1.1,1.1c-10.4,10.4-27.2,10.4-37.6,0l-577-577.2c-10.4-10.4-10.4-27.2,0-37.6l1.1-1.1c10.4-10.4,27.2-10.4,37.6,0l108.9,109.1
	C256,126.7,322.9,71,402.4,72.2c88.2,1.4,160.1,73.1,161.4,161.4c1.1,79.5-54.5,146.5-129,162.6l58.4,58.4h16.1
	c75.4,0,136.6,61.2,136.6,136.6v16l62,62C718.3,679.7,718.3,696.4,707.9,706.8z M292.1,253.4l90.5,90.5c5.7,0.9,11.5,1.4,17.4,1.4
	c61.7,0,111.6-51.4,109.2-113.6C507.1,175,461.1,129,404.4,126.8c-62.2-2.4-113.6,47.5-113.6,109.2
	C290.8,241.9,291.2,247.7,292.1,253.4L292.1,253.4z"/>
<path class="st0" d="M471.7,454.5h37.5c75.4,0,136.6,61.2,136.6,136.6v110.1c0,14.7-11.9,26.5-26.5,26.5h-1.5
	c-14.7,0-26.5-11.9-26.5-26.5V591.1c0-45.3-36.7-82-82-82l-28.4-22.8c-2.2,0-3.3-2.6-1.7-4.2L453,462.3
	C458,457.3,464.7,454.5,471.7,454.5z"/>
</svg>
