<svg id="Layer_1" data-name="Layer 1" xmlns="http://www.w3.org/2000/svg" viewBox="0 0 800 800"><defs><style>.cls-1{fill:#939598;}</style></defs><title>icons</title><path class="cls-1" d="M538.1,387.64c5.36-31.09,3.59-54.48-5.28-69.63a41.17,41.17,0,0,0-19.57-17.59c-7.58-21.35-22.09-39.21-42.15-51.8s-45.26-19.48-71-19.48h-.81c-26.06.14-51.47,7.33-71.57,20.24-19.9,12.8-34.2,30.8-41.54,52.21a41.18,41.18,0,0,0-19.37,17.78c-8.58,15-10.17,37.94-4.78,68.25,0,0,4.22,25.82,11.67,45.6,3.58,11,6.81,19.48,8.33,23.33,8.78,35,24.74,64.18,46.17,84.31,21,19.75,46.09,30.19,72.51,30.19h.55c26.62-.14,51.76-10.85,72.69-31,21.19-20.35,36.82-49.67,45.21-84.79,1.42-3.7,4.36-11.65,7.65-22.07C533.44,415.56,538.1,387.64,538.1,387.64Zm-55.75,45.6q1.06,7.51,1.9,15.54c-13.09,52.6-45.66,86.65-83.15,86.86h-.55c-37.35-.08-70.13-33.79-83.75-86q.79-8.49,1.83-16.38a296.43,296.43,0,0,1,9.7-45.6c1.35-4.21,2.8-8.19,4.34-11.9,5-12,9.67-18,12-20.56,24.27-5.29,86.27-5.61,110.59-.57,2.38,2.5,7.11,8.46,12.25,20.42,1.68,3.91,3.25,8.13,4.72,12.61C472.26,387.64,479.45,412.26,482.35,433.24Zm22.22-60.8A160.82,160.82,0,0,0,495,350.27c-10.15-19.11-20-25.75-22.82-27.34a18.19,18.19,0,0,0-3.93-1.63c-28.83-8.05-108.15-7.64-136.92.73a18.3,18.3,0,0,0-3.9,1.68c-2.76,1.61-12.54,8.34-22.49,27.56a160.81,160.81,0,0,0-9.32,22.28c-3.41-24.31.34-33.83,1.9-36.57a6.75,6.75,0,0,1,5.58-3.66,17.61,17.61,0,0,0,14.66-13.56c8.68-37.85,47.26-55,81.61-55.16h.7c34.18,0,72.69,16.83,81.74,54.36a17.6,17.6,0,0,0,14.78,13.36,6.78,6.78,0,0,1,5.64,3.62C503.85,338.65,507.7,348.11,504.56,372.44Z"/><path class="cls-1" d="M632.59,630.89a1.69,1.69,0,0,1-1.71,1.71h-110v41.69H674.28V516.89H632.59Z"/><path class="cls-1" d="M520.92,125.71V167.4h110a1.69,1.69,0,0,1,1.71,1.71V275.22h41.69V125.71Z"/><path class="cls-1" d="M167.41,169.29a1.69,1.69,0,0,1,1.71-1.71h110V125.71H125.72V275.37h41.69Z"/><path class="cls-1" d="M167.59,630.87v-114H125.72v157.4H279.08V632.58H169.3A1.69,1.69,0,0,1,167.59,630.87Z"/></svg>