<?xml version="1.0" encoding="iso-8859-1"?>
<!-- Uploaded to: SVG Repo, www.svgrepo.com, Generator: SVG Repo Mixer Tools -->
<!DOCTYPE svg PUBLIC "-//W3C//DTD SVG 1.1//EN" "http://www.w3.org/Graphics/SVG/1.1/DTD/svg11.dtd">
<svg height="800px" width="800px" version="1.1" id="Capa_1" xmlns="http://www.w3.org/2000/svg" xmlns:xlink="http://www.w3.org/1999/xlink" 
	 viewBox="0 0 321.922 321.922" xml:space="preserve">
<g>
	<path style="fill:#211915;" d="M267.494,145.186c-26.595,0-48.781,19.178-53.492,44.428h-5.588
		c4.919-37.627,37.163-66.782,76.11-66.782c5.523,0,10-4.477,10-10s-4.477-10-10-10c-14.134,0-27.569,3.047-39.685,8.516
		c-0.719-4.817-4.861-8.516-9.878-8.516h-40c-5.523,0-10,4.477-10,10c0,3.14,1.45,5.939,3.714,7.772h-59.021V96.017
		c0-15.515-12.622-28.137-28.137-28.137H84.461c-5.523,0-10,4.477-10,10s4.477,10,10,10h17.056c4.487,0,8.137,3.65,8.137,8.137
		v29.834c-16.885-14.343-38.726-23.019-62.564-23.019H31.461c-5.523,0-10,4.477-10,10s4.477,10,10,10h15.628
		c18.717,0,35.885,6.74,49.223,17.911l-12.422,13.143c-8.499-5.494-18.61-8.699-29.461-8.699C24.417,145.186,0,169.602,0,199.614
		s24.417,54.428,54.428,54.428s54.428-24.417,54.428-54.428c0-11.949-3.88-23.003-10.433-31.99l11.455-12.12
		c8.802,12.492,13.992,27.701,13.992,44.11c0,5.523,4.477,10,10,10h20.805v9.851c0,5.523,4.477,10,10,10s10-4.477,10-10v-9.851
		h39.326c4.711,25.25,26.897,44.428,53.492,44.428c30.012,0,54.428-24.417,54.428-54.428S297.505,145.186,267.494,145.186z
		 M267.494,234.042c-15.507,0-28.647-10.307-32.942-24.428h32.942c5.523,0,10-4.477,10-10s-4.477-10-10-10h-32.942
		c4.295-14.121,17.436-24.428,32.942-24.428c18.984,0,34.428,15.444,34.428,34.428C301.922,218.598,286.478,234.042,267.494,234.042
		z M88.856,199.614c0,18.984-15.444,34.428-34.428,34.428S20,218.598,20,199.614c0-18.983,15.444-34.428,34.428-34.428
		c5.515,0,10.727,1.311,15.353,3.626l-22.62,23.933c-3.793,4.014-3.615,10.343,0.398,14.137c1.933,1.827,4.402,2.732,6.867,2.732
		c2.654,0,5.303-1.05,7.27-3.131l22.617-23.93C87.198,187.587,88.856,193.408,88.856,199.614z M123.847,140.726l0.115-0.122h83.907
		c-10.694,13.859-17.723,30.682-19.613,49.01h-44.898C141.475,171.341,134.486,154.56,123.847,140.726z"/>
</g>
</svg>