<svg id="Layer_1" data-name="Layer 1" xmlns="http://www.w3.org/2000/svg" viewBox="0 0 800 800"><defs><style>.cls-1{fill:#c2c4c6;}.cls-2,.cls-3{fill:#fff;}.cls-2{stroke:#fff;stroke-miterlimit:10;stroke-width:19px;}</style></defs><title>icons</title><path class="cls-1" d="M526.48,175.45a98.52,98.52,0,0,1,98.07,98.07v253a98.52,98.52,0,0,1-98.07,98.07h-253a98.52,98.52,0,0,1-98.07-98.07v-253a98.52,98.52,0,0,1,98.07-98.07h253m0-55h-253c-84.19,0-153.07,68.88-153.07,153.07v253c0,84.19,68.88,153.07,153.07,153.07h253c84.19,0,153.07-68.88,153.07-153.07v-253c0-84.19-68.88-153.07-153.07-153.07Z"/><path class="cls-1" d="M537.19,353.45a111.28,111.28,0,0,1-8.45,43.5A104.66,104.66,0,0,1,504.87,432q-15.42,14.92-37.79,23.37t-49.72,8.45H378.7a14.53,14.53,0,0,0-14.53,14.53v87.77a14.53,14.53,0,0,1-14.53,14.53H314.07a14.53,14.53,0,0,1-14.53-14.53V297.51a52,52,0,0,1,51.95-51.95h68.87q27.34,0,49.22,8.45t36.79,22.87a97.53,97.53,0,0,1,22.87,34.31A112.86,112.86,0,0,1,537.19,353.45Zm-64.63,0q0-23.86-13.42-38t-38.78-14.17H378.67a14.5,14.5,0,0,0-14.5,14.5v77.86a14.53,14.53,0,0,0,14.53,14.53h38.66q25.85,0,40.52-14.67T472.55,353.45Z"/><circle class="cls-1" cx="561.34" cy="572.94" r="122.63"/><path class="cls-2" d="M561.34,709c-75,0-136-61-136-136s61-136,136-136,136,61,136,136S636.34,709,561.34,709Zm0-245.27A109.26,109.26,0,1,0,670.6,572.94,109.38,109.38,0,0,0,561.34,463.69Z"/><rect class="cls-3" x="489.57" y="553.22" width="145.97" height="39.27"/></svg>