<svg id="Layer_1" data-name="Layer 1" xmlns="http://www.w3.org/2000/svg" viewBox="0 0 800 800"><defs><style>.cls-1{fill:#1f8bfb;}.cls-2{fill:#fff;}</style></defs><title>icons</title><rect class="cls-1" x="120.45" y="120.45" width="559.11" height="559.11" rx="153.07" ry="153.07"/><path class="cls-2" d="M537.19,353.45a111.28,111.28,0,0,1-8.45,43.5A104.66,104.66,0,0,1,504.87,432q-15.42,14.92-37.79,23.37t-49.72,8.45H378.7a14.53,14.53,0,0,0-14.53,14.53v87.77a14.53,14.53,0,0,1-14.53,14.53H314.07a14.53,14.53,0,0,1-14.53-14.53V297.51a52,52,0,0,1,51.95-51.95h68.87q27.34,0,49.22,8.45t36.79,22.87a97.53,97.53,0,0,1,22.87,34.31A112.86,112.86,0,0,1,537.19,353.45Zm-64.63,0q0-23.86-13.42-38t-38.78-14.17H378.67a14.5,14.5,0,0,0-14.5,14.5v77.86a14.53,14.53,0,0,0,14.53,14.53h38.66q25.85,0,40.52-14.67T472.55,353.45Z"/></svg>