<svg id="_Layer_" data-name="&lt;Layer&gt;" xmlns="http://www.w3.org/2000/svg" xmlns:xlink="http://www.w3.org/1999/xlink" viewBox="0 0 3000 2000"><defs><style>.cls-1{fill:none;}.cls-2{fill:#e3e7f7;}.cls-3{clip-path:url(#clip-path);}.cls-4{opacity:0.7;}.cls-5{fill:#96ceda;}.cls-6{fill:#53ceba;}.cls-7{fill:#49b2a4;}.cls-8{fill:#fdbaa0;}.cls-9{fill:#556ef5;}.cls-10{fill:#384955;}.cls-11{fill:#aab6f9;}.cls-12{fill:#5a5872;}.cls-13{fill:#f9f9fa;}.cls-14{fill:#fff;}.cls-15{fill:#d9d9df;}.cls-16{fill:#dde2fd;}.cls-17{fill:#f27953;}</style><clipPath id="clip-path"><path class="cls-1" d="M395.14,1114c96.53,428.34-137.12,799,808.54,781.59,167.39-3.08,397.19-19.36,589.24-47.75,155.59-23,325.39-58.76,472-117.4,242.08-96.89,411.73-252.47,384.68-509.72C2621.86,957.49,2339,819.58,2367,706.43c86.51-350.18-154.18-566.17-579.11-599.4C1250.13,65,1085.06,453.45,865.46,433.79,509.52,401.92,296.88,677.92,395.14,1114Z"/></clipPath></defs><title>gra-announcement-01</title><path class="cls-2" d="M1031.95,350.76c-45.52,41.31-107,55.56-166.85,59.11-34.41,2-68.91.89-103.35,1.73-17.18.42-34.36,1.33-51.43,3.39l-2.84.35c.39,0,2.71-.39.42-.05-2,.3-4.06.59-6.09.91q-6,1-11.95,2.11-11.06,2.15-22,5-13,3.4-25.71,7.77Q636,433.19,630,435.53q-2.83,1.09-5.64,2.23l-2.41,1c-5.12,2.1,2-.92-1,.41a411.71,411.71,0,0,0-46.77,24.54c-8.63,5.36-21.72,2.13-26.52-7-5-9.5-2.25-20.8,7-26.52,56.06-34.81,119.53-52.89,185.18-56.54,34.09-1.9,68.25-.77,102.37-1.64,15.39-.39,30.78-1.18,46.08-2.91l4.76-.57c.91-.11,3.8-.3-.4.07.79-.07,1.59-.22,2.38-.34q5.54-.8,11.05-1.78,10.21-1.82,20.29-4.31c7.69-1.92,15.31-4.15,22.79-6.77,3.72-1.3,7.37-2.76,11-4.19-3.79,1.47,1.22-.54,2.57-1.16q2.49-1.14,5-2.34A182.71,182.71,0,0,0,988,336.19q4.9-3.23,9.56-6.79c-3.27,2.5,1.3-1.13,2.2-1.89,1.61-1.36,3.18-2.76,4.74-4.17,7.51-6.81,20.09-8,27.41,0,6.82,7.43,8,20.13,0,27.41Z"/><path class="cls-2" d="M2297.77,274.88q-16.67-15.48-34.44-29.69c-1.54-1.22-3.09-2.43-4.63-3.65-1.72-1.38.36.27.6.45l-2-1.54q-4.69-3.58-9.44-7.06-9.17-6.72-18.59-13.09a599.85,599.85,0,0,0-78.93-45q-6.09-2.89-12.24-5.63-2.69-1.2-5.39-2.38l-2.32-1c-5-2.15,2.1.85-.8-.35-8-3.33-16.13-6.53-24.3-9.54-9.49-3.5-16.95-13.3-13.54-23.84,3-9.3,13.66-17.29,23.84-13.54a630,630,0,0,1,169.2,94.12q20.95,16.29,40.4,34.37c7.45,6.92,7.52,20.51,0,27.41a19.8,19.8,0,0,1-27.41,0Z"/><path class="cls-2" d="M2465.65,734.13c0,2.39,0,4.77.19,7.15.06,1,.16,1.9.24,2.85.37,4.68-.55-2.88-.06-.2a118,118,0,0,0,3,13.2c.7,2.28,1.54,4.5,2.33,6.75,1.22,3.46-1.07-2.17,0,0,.52,1.07,1,2.17,1.51,3.24a102.19,102.19,0,0,0,6.77,11.78,54.09,54.09,0,0,0,3.73,5.25c-1.56-1.83-1.38-1.78.1,0q1.15,1.37,2.35,2.7a99.78,99.78,0,0,0,9.75,9.43l1.1.91q1.65,1.33-1.12-.82c0,.37,2,1.45,2.3,1.69q2.9,2.07,6,3.92t6.25,3.45c.85.43,1.72.82,2.57,1.24,4.38,2.13-3.89-1.51.64.28,9.39,3.72,17,13.13,13.54,23.84-2.95,9.11-13.75,17.53-23.84,13.54-44.81-17.73-76.33-61.4-76.07-110.17.05-10.14,8.88-19.85,19.38-19.38s19.44,8.52,19.38,19.38Z"/><path class="cls-2" d="M387.24,1376.55a439.81,439.81,0,0,0,1,68.27q.39,4.19.86,8.38.21,1.86.44,3.72c.05.44.69,5.32.37,3-.27-2,.25,1.71.3,2.06q.34,2.32.7,4.63.65,4.16,1.39,8.31c2,11.37,4.49,22.65,7.38,33.84,2.53,9.8-3.22,21.49-13.54,23.84-10.11,2.3-21.13-3-23.84-13.54a457.51,457.51,0,0,1-13.8-142.5c.63-10.1,8.46-19.87,19.38-19.38,10,.45,20.06,8.54,19.38,19.38Z"/><g class="cls-3"><path class="cls-2" d="M395.14,1114c96.53,428.34-137.12,799,808.54,781.59,167.39-3.08,397.19-19.36,589.24-47.75,155.59-23,325.39-58.76,472-117.4,242.08-96.89,411.73-252.47,384.68-509.72C2621.86,957.49,2339,819.58,2367,706.43c86.51-350.18-154.18-566.17-579.11-599.4C1250.13,65,1085.06,453.45,865.46,433.79,509.52,401.92,296.88,677.92,395.14,1114Z"/><g class="cls-4"><path class="cls-5" d="M1963.77,1901.1c-93.1,31.55-205.5,34.52-276.76-28.83-20.82-18.51-37.53-43.31-39-71.16s16-58.11,43.66-65.63c24-6.5,51.57,3.93,72.88-8.89,14.89-9,21.78-27.17,21.73-44.05s-5.82-33-10.87-49a603.8,603.8,0,0,1-16.28-63.4c-5.06-25.35-8.17-53.11,4.41-76.34s46.87-36.85,66.62-20.05c9.34,7.94,13.21,20.3,20.15,30.33s20.58,18.12,31.6,11.94c4.32-2.42,7.31-6.59,9.76-10.83,18.89-32.68,13-73.63,28.39-107.94,7.62-17,20.08-31.44,33-45.09,58.15-61.59,135.91-114.15,220.26-112.2,16.5.38,33.44,3.07,47,11.95,25.69,16.84,32.58,52.58,23.8,82.27s-30,54.48-51.85,77.09-45.27,44.54-60.33,71.87a144,144,0,0,0,72.88-10.73c11.87-5.09,24.22-12,36.78-9.76,20,3.52,27.9,29.69,19.36,48.1s-27.59,29.93-46.22,38.67c-49.79,23.36-108.51,38.17-139.89,82.79-4.21,6-7.92,13.48-5.36,20.14,1.76,4.57,6.12,7.61,10.57,9.79,22.18,10.88,49,6.15,73.93,8.49,5.77.54,11.67,1.54,16.49,4.58,19.09,12,7.81,41.49-6.09,59.81-52.39,69.09-111.22,128.58-200.6,166.12Z"/></g><path class="cls-6" d="M1930.75,1945.68c-42.83-111.38-32.43-240.25,23.93-345a397.29,397.29,0,0,1,58.54-81.86c4.4-4.75,11.63,2.22,7.24,6.95-79.11,85.33-116.32,205.25-103.66,320.54a387.11,387.11,0,0,0,23.61,96.64c2.32,6-7.35,8.73-9.65,2.74Z"/><path class="cls-6" d="M1903.8,1776c-13.92-7-28.2-14.32-39.63-25.17-6.33-6-16.76-17.23-9.41-26.21,17.17-21,47.33,32.77,53.73,41.63,3.79,5.24-4.82,10.41-8.58,5.21q-8.81-12.2-17.61-24.39c-2.6-3.59-5.08-7.45-8.25-10.57-1.91-1.88-12.34-10.95-10.2-1.09.73,3.36,7.15,8.15,9.67,10.35a97.93,97.93,0,0,0,12.09,8.86c7.41,4.69,15.26,8.66,23.08,12.61,5.77,2.92.87,11.68-4.88,8.76Z"/><path class="cls-6" d="M1912,1723.78c-15.26-12.73-31.41-25.9-43.76-41.58-5.36-6.81-20.32-30-6.57-35.89s26.1,7.95,33.12,17.63a154,154,0,0,1,24.32,53c1.57,6.25-8.08,9-9.65,2.74a147.19,147.19,0,0,0-13.65-35.44c-3.14-5.7-19.59-34.26-26.59-26.61-10.49,11.46,41.33,51.85,49.73,58.86,5,4.15-2,11.36-6.95,7.24Z"/><path class="cls-6" d="M1929.7,1660.23a180.09,180.09,0,0,1-41.8-43.33c-7-10.27-22.91-32-7.8-42.48,12.53-8.72,30.48,9.76,37.44,18.48,13.16,16.49,18.43,37.22,21.76,57.65,1,6.3-8.61,9.11-9.65,2.74-2.44-15-5.62-30.19-13-43.63a69.62,69.62,0,0,0-11.26-15.43,55.82,55.82,0,0,0-7.82-6.67,35.25,35.25,0,0,0-4.72-3q-4.08-3.83-5.46,2.61c-3.51,5.29-1.62,6.64,1.07,11.58,1.62,3,3.38,5.87,5.2,8.71a163.25,163.25,0,0,0,13.26,18,178.43,178.43,0,0,0,29.71,27.52c5.18,3.84-1.83,11-6.95,7.24Z"/><path class="cls-6" d="M1956.35,1592.9c-6.77-21.42-23.2-38.51-28.24-60.6-2.41-10.56-3.76-37.73,11.74-39.29,15.88-1.6,27.75,15.59,30.34,29.29,4.23,22.32-7.3,43.87-5.29,66.2.58,6.42-9.46,6.49-10,.08-1.42-15.68,3.41-30.26,5.46-45.63,1.22-9.11,1.47-19.11-2.89-27.49-2.63-5.06-10.15-14.53-16.36-11.25s-4.91,16.52-3.91,22.46c1.27,7.56,4.2,14.67,7.7,21.43,7.26,14,16.32,26.84,21.14,42.05,1.95,6.16-7.7,8.9-9.65,2.74Z"/><path class="cls-6" d="M2007,1527.45c-2.69-20.39,2-40.53,10.2-59.17,6-13.67,19.3-37.35,37.38-35.7,20.86,1.91,6.47,29.29,1.59,39.13a205.59,205.59,0,0,1-39.05,53.88c-4.57,4.57-11.81-2.38-7.24-6.95a197.53,197.53,0,0,0,28.55-35.66,195.41,195.41,0,0,0,11.17-20.7c2.36-5.1,11.24-23.75-.91-18.38-13.89,6.14-21.77,25.35-26.42,38.64-5.08,14.54-7.26,29.51-5.23,44.83.84,6.38-9.2,6.42-10,.08Z"/><path class="cls-6" d="M1966.28,1586.82c12.6-12.27,27.79-20.46,43.75-27.54,9.11-4,26.55-13.28,31.31,1.42,4.38,13.52-14.2,24.64-23.89,29.66a32.52,32.52,0,0,1-18.88,3.87c-11.61-1-21.16-1-31.84,4.45-5.72,2.94-11-5.62-5.21-8.58,8.89-4.57,18.44-7.31,28.53-6.88,5.43.23,11.05,2.1,16.46.89,5.62-1.25,11.22-5.28,15.8-8.64,1.34-1,6.31-3.87,6.78-5.69,2.72-10.55-6.23-5.2-8.83-4.1-5.33,2.26-10.62,4.63-15.82,7.18-11.31,5.55-21.85,12.07-30.91,20.9-4.62,4.51-11.87-2.44-7.24-6.95Z"/><path class="cls-6" d="M1933.92,1656.55c12.36-8.12,25.2-16.47,39.87-19.64,6.94-1.5,23.27-4.77,24.06,6.17.71,9.8-14.39,20.74-21.5,24.92-11.37,6.68-24.69,3-36.8.58-6.33-1.27-3.82-11,2.5-9.72,7.72,1.54,17.74,4.73,25.55,2.28,7-2.2,19.48-12.33,20.46-19.93l1.38,4.87c-4.68-4.9-23.7,3.62-28.65,6-7.58,3.69-14.63,8.38-21.66,13-5.41,3.55-10.6-5-5.21-8.58Z"/><path class="cls-6" d="M1916.1,1723.67a128,128,0,0,0,24.22-6.58,110.19,110.19,0,0,0,13.39-6.31c2-1.11,10-4.48,10.67-6.63,3.26-11.28-21.21,2.52-24.12,4.61A67.47,67.47,0,0,0,1923,1727.2c-3.5,5.4-12.28.55-8.76-4.88,9.14-14.13,41.75-46.88,59.6-27.85,18.63,19.87-43.57,36.84-55,38.85-6.3,1.11-9.11-8.53-2.74-9.65Z"/><path class="cls-6" d="M1912.8,1771.48a184.26,184.26,0,0,0,22.48-10.93c2.72-1.57,5.39-3.22,8-4.93s10.06-4.61,7.9-7.9c-4.24-6.46-28.12,23.39-31.37,27.49-4,5.07-11.22-1.93-7.24-6.95,7.9-10,16.32-21.47,27.36-28.2,6.33-3.85,18.55-8.17,23.7-.06,11.47,18-37.54,36.82-48.09,41.13-6,2.44-8.67-7.23-2.74-9.65Z"/><path class="cls-7" d="M1555.49,1943.1c60.15,10.39,129.48,1.44,167.31-44.16,11.05-13.32,19-30.11,17.26-47.29s-15.26-34-33-36c-15.33-1.68-31.31,7.34-45.6,1.54-10-4.06-15.93-14.54-17.49-24.88s.48-20.76,2.08-31a373.32,373.32,0,0,0,4-40.37c.73-16,0-33.29-9.87-46.3s-32.25-18.06-42.8-5.89c-5,5.75-6.21,13.69-9.53,20.49s-10.94,13.06-18.29,10.34c-2.88-1.07-5.11-3.34-7-5.69-14.67-18.19-14.14-27.16-26.43-54.31-4.74-10.47-16.43-26.35-25.63-33.47-41.5-32.12-94.2-56.84-145.83-47.56-10.1,1.81-20.25,5.09-27.74,11.81-14.2,12.77-15.08,35.3-6.9,52.63s23.54,30.47,39.09,42.21,32,22.92,43.8,38.2a89.73,89.73,0,0,1-45.77.41c-7.77-2-16-5-23.51-2.45-12,4.07-14.35,20.85-7.38,31.29s19.76,15.67,32,19.24c32.78,9.52,70.24,13,93.7,37.27,3.15,3.26,6.13,7.49,5.18,11.81-.65,3-3,5.24-5.57,7-12.61,8.78-29.53,8.46-44.62,12.28-3.49.88-7,2.06-9.7,4.38-10.6,9.18-.9,26.14,9.35,36,38.67,37.27,80.39,68,138.82,82.45Z"/><path class="cls-6" d="M1388.32,1622.31a521.66,521.66,0,0,1,128.13,97.52,539.52,539.52,0,0,1,92.47,130.2,521.54,521.54,0,0,1,33.53,83.47c.87,2.87,5.29,1.39,4.41-1.48a533.5,533.5,0,0,0-69.65-144.76,540.58,540.58,0,0,0-109.84-118.38,520.16,520.16,0,0,0-76.93-50.72c-2.64-1.42-4.76,2.72-2.12,4.14Z"/><path class="cls-8" d="M713.44,1515s-36.12-39.23-15.86-102.44,68.44-103,108.92-120.63c66.49-29,119.74,5.73,102.21,29.05-9.75,13-.25,57.54,9.71,57.08C965.22,1375.88,816.11,1604.68,713.44,1515Z"/><path class="cls-8" d="M514.85,1775.81l73.33,20.84L809,1831.13c11.79-29.14,24.47-59.86,38.35-87.91,15-30.36,42.41-80.89,74.58-91.43,29-9.41,43.31-19,44-18.91,32.57-21.33,64.4-63.73,84.85-96.86,23.44-37.13,48.25-85.6,61.78-117.94-29.71-2.44-345.06-28.43-383.7-31.61-4.81,25.86-35.86,80.85-36,81.95C629.47,1585,562,1692.4,514.85,1775.81Z"/><path class="cls-9" d="M834.45,1928.85s17.34-96.06,17.74-97.6v0c5.54-21.54,12.67-45.61,21.54-68.26,1.06-2.75,2.17-5.5,3.29-8.21,14.27-34.21,11.19-47-7-52.46-1.13-.34-2.3-.66-3.53-.93-9.73-2.25-23-3-39.56-3.81-11.71-.6-25.08-1.24-40-2.52-51.62-4.37-97.18-68.58-134.44-112.51-5-5.88-9.84-11.4-14.52-16.36-6.79-7.18-13.25-13.21-19.38-17.48-8.28-5.76-15.94-8.32-22.93-6.26A38.7,38.7,0,0,0,576,1555.49a44.61,44.61,0,0,0-2.87,3.8v0c-8,11.81-12.73,28.16-19,46.05-.7,1.95-1.4,3.94-2.12,5.94-7.14,19.6-204.48,266.29-204.48,266.29Z"/><path class="cls-10" d="M1037.73,1651.65h0A45.57,45.57,0,0,1,987,1611.87l-67.38-558.43a45.57,45.57,0,0,1,39.79-50.71h0a45.57,45.57,0,0,1,50.71,39.79l67.38,558.43A45.57,45.57,0,0,1,1037.73,1651.65Z"/><path class="cls-8" d="M718.07,1368.52c22.44-42.1,90.68-133,126.54-157.67,67.07-46.1,101.16-115.86,113.87-115.19s34.64,37.29,6.47,97.49c-27.78,59.37-78.35,88.23-82.33,101.59s-19.73,73.87-19.73,73.87S700.67,1401.16,718.07,1368.52Z"/><path class="cls-9" d="M905.93,1044.56l-233.51,54.22c-57.67,18.14-133.26-174.95-45-206.23L863.7,837.69Z"/><path class="cls-11" d="M1453.88,1176.19c-402.44-191.77-547.95-131.63-547.95-131.63L863.7,837.69s112.9-53.88,448.77-384.44Z"/><path class="cls-12" d="M1577.54,774.78c43.17,210.38,12.5,395.45-68.51,413.36S1327.37,1050,1284.2,839.66s-12.5-395.45,68.51-413.37S1534.37,564.4,1577.54,774.78Z"/><path class="cls-13" d="M1220.91,576.42c-45.59,65.26-101.33,118.76-165.83,159.47-12,7.56,1.05,27.92,13,20.39,66-41.65,123.22-96.85,169.85-163.6,8.47-12.13-8.51-28.42-17-16.26Z"/><path class="cls-13" d="M1002.75,782.62a670.13,670.13,0,0,1-58.05,42c-11.93,7.69,1.1,28.05,13,20.39a670,670,0,0,0,58.05-42c11.13-9-1.8-29.43-13-20.39Z"/><path class="cls-14" d="M646.73,958.75c.31-4.64,12.08-10.49,15.36-12.37a79.92,79.92,0,0,1,19.36-7.68c13.52-3.62,7.41-27.43-6.14-23.8C656,920.08,626.75,932.55,625,958.5c-1.07,15.75,20.68,15.89,21.74.25Z"/><path class="cls-15" d="M1541.79,962.44a348.08,348.08,0,0,1-3.32,73.33c-3.61,23.17,28,33.46,31.59,10.17a395,395,0,0,0,4.33-83.13c-1.32-23.67-33.94-24.17-32.61-.37Z"/><path class="cls-16" d="M1375.32,749.29s71.86-6.58,84.71,34.64-32.56,79.55-49.43,78.41S1352.27,810.21,1375.32,749.29Z"/><path class="cls-13" d="M1413.12,788c4.78.62,9.71,4.14,13.57,9.34s11.56,4.52,15.37.17c4.4-5,3.57-12.23-.26-17.4a42.08,42.08,0,0,0-29.05-16.72c-5.86-.76-10.78,6-10.68,12.18A12.32,12.32,0,0,0,1413.12,788Z"/><path class="cls-8" d="M887.75,1353c5.13-6.29-.22-12.17,16.06-15.2,54.48-17.56,112.53-20,169.74-20.38,23.8-.14,49,.45,69.15,13.15s31.86,42,17.85,61.35c-10.34,14.27-29.69,17.81-47.12,20-64.89,8.27-115.57,3.85-180.64-2.77-16.81-1.71-33.15-8.12-43.48-21.55S877.05,1366.16,887.75,1353Z"/><path class="cls-8" d="M1084.68,1391.89c22.24-10.86,50.9.47,71.85,13.66s33.1,43.65,18.54,63.73c-10.74,14.82-30.85,18.5-49,20.81-67.41,8.59-108.54-8.29-176.14-15.17-17.47-1.78-44.8-7.93-48.78-20.34-11-34.22,36.9-44.83,113.78-39.24C1041.62,1417.28,1069.46,1399.32,1084.68,1391.89Z"/><path class="cls-8" d="M923.31,1459.35c5.74-4.12,66.93-12.3,118.43,1.75,21.42,5.85,44,12.67,59.82,28.63s21.11,44.06,5.05,57.15c-11.85,9.66-29.89,7.84-46,5.38-59.82-9.18-54-6.9-111.29-28.9-14.81-5.68-36-18.36-42.92-32.49S911.34,1467.94,923.31,1459.35Z"/><path class="cls-8" d="M885,1275.5c48.31-15.57,84.55-23.46,135.28-23.76,21.1-.13,43.45.4,61.33,11.66s28.25,37.26,15.83,54.4c-9.17,12.65-26.33,15.79-41.79,17.76-57.54,7.33-110.71,23.5-167.28,10.65C825.35,1331.9,870.58,1278.19,885,1275.5Z"/><path class="cls-17" d="M2132.26,605.22,1650.78,668.7a8.94,8.94,0,0,1-10-7.7h0a8.94,8.94,0,0,1,7.7-10l481.49-63.48a8.94,8.94,0,0,1,10,7.7h0A8.94,8.94,0,0,1,2132.26,605.22Z"/><rect class="cls-17" x="1591.48" y="510.34" width="240.1" height="17.89" rx="6.68" ry="6.68" transform="translate(-74.36 617.18) rotate(-20.02)"/><path class="cls-17" d="M2060,1006.38,1655.5,947.8a8.22,8.22,0,0,0-9.31,7l-.21,1.43a8.22,8.22,0,0,0,7,9.31l404.53,58.58a8.22,8.22,0,0,0,9.31-7l.21-1.43A8.22,8.22,0,0,0,2060,1006.38Z"/><path class="cls-17" d="M1890.09,850l-226.73.78a6.68,6.68,0,0,0-6.66,6.71l0,4.52a6.68,6.68,0,0,0,6.71,6.66l226.73-.78a6.68,6.68,0,0,0,6.66-6.71l0-4.52A6.68,6.68,0,0,0,1890.09,850Z"/></g></svg>