<?xml version="1.0" encoding="utf-8"?>
<!-- Generator: Adobe Illustrator 21.1.0, SVG Export Plug-In . SVG Version: 6.00 Build 0)  -->
<svg version="1.1" id="Layer_1" xmlns="http://www.w3.org/2000/svg" xmlns:xlink="http://www.w3.org/1999/xlink" x="0px" y="0px"
	 viewBox="0 0 134.3 48" style="enable-background:new 0 0 134.3 48;" xml:space="preserve">
<style type="text/css">
	.st0{fill:#64BC46;}
	.st1{fill:#00445C;}
	.st2{font-family:'Zapfino';}
	.st3{font-size:19.6963px;}
</style>
<g>
	<path class="st0" d="M17.5,22.6c0.6,0,1.3,0.2,2.1,0.3c6.4,0.9,9.7,5.1,9.7,9.4c0,8.2-8.1,11.9-17.3,11.9c-4,0-7.7-1-9.8-2.5
		c-0.5-0.4-0.1-1.5,0.1-1.5c0.1,0,0.1,0,0.2,0.1c1.7,1.1,4.7,1.7,7.5,1.7c5.3,0,9.7-3.1,9.7-8.7c0-4.5-3-9.1-11.9-9.2
		c-0.4,0-0.5-0.4-0.6-1c0-0.2,0.1-0.3,0.3-0.3c7.9-0.5,10.9-4.4,10.9-9.3c0-3.8-2.5-6.5-6.5-6.5c-3.1,0-6.5,2-8.1,4.2
		c-0.1,0.1-0.2,0.1-0.3,0.1c-0.3,0-0.8-1.1-0.5-1.5C5,6.9,9.5,3.8,16.1,3.8c7.5,0,11.7,3.8,11.7,9.1c0,4.6-4.2,7.7-8.7,9
		c-0.5,0.1-0.9,0.3-1.6,0.4V22.6z"/>
</g>
<text transform="matrix(1 0 0 1 26.984 36.0489)" class="st1 st2 st3">Resident</text>
</svg>
