<?xml version="1.0" encoding="utf-8"?>
<!-- Generator: Adobe Illustrator 21.1.0, SVG Export Plug-In . SVG Version: 6.00 Build 0)  -->
<svg version="1.1" id="Layer_1" xmlns="http://www.w3.org/2000/svg" xmlns:xlink="http://www.w3.org/1999/xlink" x="0px" y="0px"
	 viewBox="0 0 351.6 267.3" style="enable-background:new 0 0 351.6 267.3;" xml:space="preserve">
<style type="text/css">
	.st0{fill:#C9D6F2;}
	.st1{fill:#EBF2FF;}
	.st2{fill:#CBDBF4;}
	.st3{fill:#1967CA;}
	.st4{opacity:0.2;fill:#F6F5F7;}
	.st5{fill:#ACBFE2;}
	.st6{fill:#86A8E2;}
	.st7{fill:#F6F5F7;}
	.st8{fill:#E28C71;}
	.st9{fill:#F27851;}
	.st10{fill:#6E86CC;}
	.st11{fill:#C92F3B;}
	.st12{fill:#E03D51;}
	.st13{fill:#FCDCDA;}
	.st14{fill:#EFBEBD;}
	.st15{fill:#E67052;}
	.st16{fill:#EE9D7F;}
	.st17{fill:#062440;}
	.st18{fill:#353A66;}
	.st19{fill:#494C7F;}
	.st20{fill:#373C66;}
	.st21{fill:#1F1440;}
</style>
<g>
	<path class="st0" d="M30.2,248.8c0,0-31.4-22.1-17-49.9c14.5-27.8,43.4-70.4,28.9-92.1c-14.4-21.7-15.9-91.4,67.2-102
		c66.3-8.5,86.5,26.5,96.7,50.4c13.6,31.5,1.4,89.1,64.8,96.7c63.4,7.6,99.6,38.9,54.2,90C305.3,264.2,30.2,248.8,30.2,248.8z"/>
	<g>
		<path class="st1" d="M143.8,231.4c-46.8,10.2-84.9-4-71.9-28.1c13-24.2,5-27.2-5-34.8c-10-7.6-32.6-28.8-10.6-52
			c22-23.2,5.3-30-1.6-43.6c-20-39.9,61.2-56.3,39.2-19.6c-16.5,27.5-15.6,48.6,4.9,62.7c20.5,14,24.6,21.4,23.7,38.7
			c-0.9,17.3-8,54.1,12.9,52.6C156.3,205.8,167.8,226.2,143.8,231.4z"/>
		<path class="st2" d="M58.8,67.4c-2.2-4.1-2.7-24.4,17-23.3c12,0.6,5.7,17,3,29.5c-2.7,12.6-0.9,32.3,4.1,40.4
			c9.2,15,7.3,21.3-4.2,34.1c0,0-5.9,9.5,5,19.8c10.9,10.2,6.7,38.5,19.4,43c12.7,4.6,19.9,14.3,11.2,15.2
			c-8.7,0.9-44.7,4.4-35.2-19.3c13.8-34.6-13.1-44.8-19.8-52.5c-6.2-7-11.4-22.7,6.4-42.4C79.5,96.7,65.4,80.1,58.8,67.4z"/>
	</g>
	<g>
		<g>
			<path class="st3" d="M107.4,247.2l-0.7,3.2c-0.7-0.2-17-4.3-34.5-15.5c-23.4-15-37.6-35.6-41.1-59.6l3-0.5
				C42.2,230.4,106.7,247,107.4,247.2z"/>
		</g>
		<g>
			<path class="st3" d="M33.3,178.4c0,0-17-9-9.9-29.8C23.3,148.6,38.4,160.9,33.3,178.4z"/>
		</g>
		<g>
			<path class="st3" d="M38.7,195.4c0,0-23.1,7.7-32.6-18.4C6.1,177,18.5,172.4,38.7,195.4z"/>
		</g>
		<g>
			<path class="st3" d="M37.9,195.5c0,0,21.5-12,10.8-37.5C48.7,157.9,37,164,37.9,195.5z"/>
		</g>
		<g>
			<path class="st3" d="M50.8,214.8c0,0-22.3,10.2-34.2-14.7C16.5,200.1,28.4,194.2,50.8,214.8z"/>
		</g>
		<g>
			<path class="st3" d="M50,215c0,0,20.2-14.2,7.1-38.5C57,176.5,45.9,183.8,50,215z"/>
		</g>
		<g>
			<path class="st3" d="M70,231.7c0,0-20.4,14.1-36.1-8.3C33.8,223.4,44.6,215.5,70,231.7z"/>
		</g>
		<g>
			<path class="st3" d="M69.2,232c0,0,17.6-17.7,0.8-39.2C70,192.9,60.2,202.1,69.2,232z"/>
		</g>
		<g>
			<path class="st3" d="M89.7,242.3c0,0-16.2,19.2-37,1.9C52.7,244.3,61.1,233.7,89.7,242.3z"/>
		</g>
		<g>
			<path class="st3" d="M89.1,242.8c0,0,12.7-21.9-8.9-37.9C80.2,204.9,73,216.5,89.1,242.8z"/>
		</g>
	</g>
	<g>
		<path class="st3" d="M228,247.3c44.8,12.2,82.4,0.4,71-23.7c-11.4-24-3.5-26.6,6.6-33.5c10.1-6.9,32.9-26.2,12.8-49.8
			c-20.1-23.6-3.6-29.3,3.7-42.2c21.4-37.6-56.5-57.5-37-20.9c14.6,27.5,12.7,47.9-7.8,60.4c-20.6,12.6-24.9,19.5-24.9,36.3
			c0,16.8,5.1,52.8-15.1,50.3C217.1,221.8,205,241,228,247.3z"/>
		<path class="st4" d="M318.4,92.7c2.3-3.9,3.8-23.5-15.3-23.4c-11.6,0-6.4,16.1-4.4,28.4c2,12.3-0.8,31.3-6,38.9
			c-9.7,14-8.1,20.2,2.3,33.3c0,0,5.3,9.5-5.8,18.9c-11.1,9.4-8.4,36.9-20.9,40.7c-12.5,3.8-20,12.9-11.6,14.2
			c8.4,1.3,43.1,6.5,35.1-17c-11.7-34.1,14.9-42.7,21.8-49.8c6.3-6.5,12.2-21.4-4.1-41.4C296.9,120,311.4,104.6,318.4,92.7z"/>
	</g>
	<g>
		<g>
			<path class="st1" d="M221.5,246.5l-0.7-4.2c65.9-10.8,94.5-62.4,94.8-63l3.7,2C319,181.9,289.5,235.4,221.5,246.5z"/>
		</g>
		<g>
			<path class="st1" d="M315.3,182.9c0,0,8.6-22.3,19.8-15.2C339.9,170.8,337.3,181.6,315.3,182.9z"/>
		</g>
		<g>
			<path class="st1" d="M310.3,190.2c0,0,22-12.7,24.2,0.1C335.5,195.8,325.9,203,310.3,190.2z"/>
		</g>
		<g>
			<path class="st1" d="M310.3,192.6c0,0,13.4-20.5-0.4-22.5C304,169.2,296.4,178.2,310.3,192.6z"/>
		</g>
		<g>
			<path class="st1" d="M295.7,207.4c0,0,14.5-20,0.8-22.6C290.7,183.7,282.6,192.4,295.7,207.4z"/>
		</g>
		<g>
			<path class="st1" d="M282.9,218.7c0,0,14.4-20,0.7-22.6C277.8,195,269.7,203.7,282.9,218.7z"/>
		</g>
		<g>
			<path class="st1" d="M265,229.9c0,0,17.7-17.7,5-22.5C264.6,205.3,255.2,212.7,265,229.9z"/>
		</g>
		<g>
			<path class="st1" d="M249.5,237c0,0,17.2-18.1,4.3-22.6C248.3,212.5,239.1,220.1,249.5,237z"/>
		</g>
		<g>
			<path class="st1" d="M228.2,243c0,0,21.5-13.5,10.8-21.3C234.5,218.4,223.7,223.6,228.2,243z"/>
		</g>
		<g>
			<path class="st1" d="M299.6,203.6c0,0,22-12.7,24.3,0.1C324.8,209.2,315.2,216.4,299.6,203.6z"/>
		</g>
		<g>
			<path class="st1" d="M286.4,215.4c0,0,22-12.7,24.3,0.2C311.7,221.1,302.1,228.2,286.4,215.4z"/>
		</g>
		<g>
			<path class="st1" d="M272,225.1c0,0,24-8,23,5.3C294.6,236,283.7,241.1,272,225.1z"/>
		</g>
		<g>
			<path class="st1" d="M255,234.1c0,0,24.5-5.7,22,7.6C275.9,247.3,264.6,251.4,255,234.1z"/>
		</g>
		<g>
			<path class="st1" d="M237,240.4c0,0,24.7-2.5,20.2,10.6C255.2,256.5,243.6,259.1,237,240.4z"/>
		</g>
	</g>
	<ellipse class="st5" cx="173.3" cy="252.6" rx="150.7" ry="9.5"/>
	<g>
		<circle class="st6" cx="181.7" cy="145.8" r="105.6"/>
		<g>
			<path class="st7" d="M191.1,185.1c3.1,5,0,12.5-6.9,16.7c-6.9,4.2-15,3.6-18-1.4L130.9,143c-3.1-5,0-12.5,6.9-16.7
				c6.9-4.2,15-3.6,18,1.4L191.1,185.1z"/>
			<path class="st7" d="M189.8,197.6c-4.2,6.9-13.2,9-20.1,4.8c-6.9-4.2-9.1-13.2-4.8-20.1l48.6-79.2c4.2-6.9,13.2-9.1,20.1-4.8
				c6.9,4.2,9.1,13.2,4.8,20.1L189.8,197.6z"/>
		</g>
	</g>
	<g>
		<path class="st8" d="M104.2,131.2c1.5-0.7,6.3-1.1,8.8,2.7c3.4,5.1,4.6,17.5,12.1,21.2c7.6,3.7,12.3,0.5,15.7-1.2
			c3.4-1.7,4-4,6.1-4.8c2.1-0.8,2.9,1.8-1.9,5.9c-2.3,1.9-12.6,13-22.5,10.2C109.7,161.6,95.5,135.1,104.2,131.2z"/>
		<g>
			<g>
				<g>
					<g>
						<g>
							<path class="st9" d="M115.4,211.1c-2.1,12.9-3.8,40.3,1.8,40.1c5.7-0.2,8.7-2.3,5.4-3.1c-3.4-0.8-3.5-1.2-3.4-2.2
								c0.3-6.5,5.3-18.8,7.1-28.2C128.5,206.8,117.3,199.8,115.4,211.1z"/>
						</g>
					</g>
					<g>
						<path class="st10" d="M114.7,248.6c0,0,5.1,1.8,8-0.5c0,0,5.6,0.5,2.2,2.2C121.5,252,114.8,253.7,114.7,248.6z"/>
					</g>
				</g>
				<path class="st11" d="M94.6,158c0,0,29.2,20.5,33.4,31c3.8,9.4-5,47.5-5,47.5s-6.2,2.5-11.8-1l0.7-29.6l-24.7-22.6L94.6,158z"/>
			</g>
		</g>
		<g>
			<path class="st9" d="M75.7,212.7c-10.8,8.9-31.5,29.8-26.7,33.6c4.7,3.8,8.7,4.3,6.5,1.3c-2.1-3-2-3.4-1.2-4.2
				c4.8-5,17.4-11.4,25.6-17.7C89.3,218.5,85.2,205,75.7,212.7z"/>
			<path class="st10" d="M48.7,242.4c0,0,2.8,5.1,6.8,5.2c0,0,4.2,4.3,0.3,3.3C51.8,249.9,45.3,246.6,48.7,242.4z"/>
		</g>
		<path class="st12" d="M90.3,157.9c0,0,15.2,34.6,11.2,46C97.8,214.1,64,238.6,64,238.6s-6.7-2.4-8.8-9.1l21.4-23.3
			c0,0-8.6-26.9-4.4-36.9c0.1-0.3-0.6,2.4-0.6,2.4L90.3,157.9z"/>
		<path class="st13" d="M108.5,173.2c5.6-7.4,8.8-18.9,9-27.8c0.3-12.3-10.6-15.5-17.5-16.2c-6.9-0.7-18.3-2-17.8,13.4
			c0.3,10.7-3.6,16.3-9,25.4c-0.1,0.2-0.3,0.4-0.4,0.7c0,0,0,0,0,0c0,0,0,0,0,0C65,178.1,102.1,181.6,108.5,173.2z"/>
		<path class="st14" d="M73.2,168c-0.1,0.2-0.3,0.4-0.4,0.7c0,0,0,0,0,0c0,0,0,0,0,0c-5.9,7.3,14.9,11,27.6,8.4
			c2-2.9-7.6-3.7-11.1-6.6c-8.1-6.6,20.9-7.2,15.9-9.6c-5.4-2.6-13.4-1.6-9.9-9.5c3.5-7.9,0.5-17.4-2.9-20.6
			c-3.5-3.3-9.3,0.6-10,7.9c-0.2,1.2-0.3,2.4-0.2,3.9C82.5,153.3,78.6,159,73.2,168z"/>
		<path class="st15" d="M101,120.2c0,0,1.5,5.9-2.8,8c-4.4,2.2,9.2,13,9.4,9.8c0.3-4.1-1.4-6.9,1.5-11.2L101,120.2z"/>
		<path class="st16" d="M111.4,111.6c2.9,3.9,3.9,18.9-0.3,21.3c-1.8,1.1-8-1.7-11-8.7c-1.2-2.9-2.4-8.1,1.1-12.5
			C102.8,109.8,108.1,107.1,111.4,111.6z"/>
		<path class="st17" d="M99.1,111.5c-3.7,4.7-2.1,9.2-1.8,10c1,3,3.4,5.8,4.2,5c0.9-1-2.5-2.1-0.9-5.1c1.6-3-0.4-4.1,0.6-6.7
			c1-2.7,3-1.8,9.2-1.6c2.6,0.1,3.2-0.8,3.1-1.9C110.2,106.7,103,106.6,99.1,111.5z"/>
		<path class="st18" d="M113.9,114.9c1.5-3.6,6.9-2.7,5.2-5.3c-1.2-1.7-1.2-0.4-14.1-3.1c-6-1.2-7.2,1.3-8.4,4.7
			c-1.1,3.1-0.7,10.9,3.4,15.4c4.1,4.5-0.1-3,1.5-6.4c1.6-3.4,2.6-2,4.9-1.4C108.7,119.4,111.5,120.7,113.9,114.9z"/>
		<g>
			<polygon class="st19" points="71.3,178.3 82.3,194 170.4,132.4 181.7,112.9 159.4,116.8 			"/>
			
				<rect x="70.2" y="155.4" transform="matrix(0.82 -0.5724 0.5724 0.82 -69.1079 99.6597)" class="st20" width="107.4" height="8.5"/>
			<polygon class="st21" points="181.7,112.9 178.6,118.2 175.7,113.9 			"/>
		</g>
		<path class="st8" d="M89.8,130c1.6,0.1,4.5,2.6,4.9,7.2c0.5,6.2-3,17.2,1.9,24.2c4.9,7,10.6,6.5,14.5,6.7c3.9,0.2,5.5-1.6,7.8-1.3
			c2.3,0.3,1.7,3-4.6,4.2c-3,0.6-17.6,5.3-24.9-2C79.7,159.6,80.2,129.2,89.8,130z"/>
	</g>
</g>
</svg>
