<?xml version="1.0" encoding="UTF-8"?>
<svg id="Layer_1" xmlns="http://www.w3.org/2000/svg" version="1.1" viewBox="0 0 800 800">
  <!-- Generator: Adobe Illustrator 29.3.1, SVG Export Plug-In . SVG Version: 2.1.0 Build 151)  -->
  <defs>
    <style>
      .st0 {
        stroke-linecap: square;
        stroke-width: 30px;
      }

      .st0, .st1 {
        fill: none;
        stroke: red;
        stroke-miterlimit: 10;
      }

      .st1 {
        stroke-width: 25px;
      }

      .st2 {
        fill: #939598;
      }
    </style>
  </defs>
  <rect class="st1" x="77" y="80.1" width="639.8" height="639.8" rx="157.1" ry="157.1"/>
  <path class="st2" d="M582,320.1l-11.2-82.4c-6-44-39.3-75.9-79.3-75.9h-189.3c-40,0-73.3,31.9-79.3,75.9l-11.2,82.4c-23.5,4-41.3,26.4-41.3,53.1v120.6c0,23.4,16.9,42.6,38,43.6v45.7c0,14.6,11,26.4,24.5,26.4h66.9c13.5,0,24.5-11.9,24.5-26.4v-45.6h144.7v45.6c0,14.6,11,26.4,24.5,26.4h66.9c13.5,0,24.5-11.9,24.5-26.4v-45.7c21.1-1,38-20.2,38-43.6v-120.6c0-26.8-17.8-49.2-41.3-53.1ZM518.3,556.7v-19.2h17.8v19.2h-17.8ZM257.6,556.7v-19.2h17.8v19.2h-17.8ZM261.5,319.5l10-74.1c2.4-17.8,15.3-30.7,30.7-30.7h189.3c15.4,0,28.3,12.9,30.7,30.7l10.1,74.1h-270.8ZM574.1,373.2v111.3H219.6v-111.3c0-.4.1-.7.2-.9h354.1c.1.2.2.5.2.9Z"/>
  <line class="st0" x1="131.4" y1="134.1" x2="662.4" y2="665.1"/>
  <line class="st0" x1="662.4" y1="134.1" x2="131.4" y2="665.1"/>
</svg>