<?xml version="1.0" encoding="utf-8"?>
<!-- Generator: Adobe Illustrator 21.1.0, SVG Export Plug-In . SVG Version: 6.00 Build 0)  -->
<svg version="1.1" id="Layer_1" xmlns="http://www.w3.org/2000/svg" xmlns:xlink="http://www.w3.org/1999/xlink" x="0px" y="0px"
	 viewBox="0 0 800 800" style="enable-background:new 0 0 800 800;" xml:space="preserve">
<style type="text/css">
	.st0{fill:#9097A7;}
</style>
<path class="st0" d="M653.1,643.9H146.9c-54.8,0-99.3-44.6-99.3-99.3V255.4c0-54.8,44.6-99.3,99.3-99.3h506.2
	c54.8,0,99.3,44.6,99.3,99.3v289.3C752.4,599.4,707.9,643.9,653.1,643.9z M407.1,589.9h246c25,0,45.3-20.3,45.3-45.3V354.7H101.6
	v189.9c0,25,20.3,45.3,45.3,45.3H407.1z M101.6,300.7h596.8v-45.3c0-25-20.3-45.3-45.3-45.3H146.9c-25,0-45.3,20.3-45.3,45.3V300.7z
	 M327.7,535.5H183.1c-14.9,0-27-12.1-27-27s12.1-27,27-27h144.6c14.9,0,27,12.1,27,27S342.6,535.5,327.7,535.5z"/>
</svg>
