<svg id="Layer_1" data-name="Layer 1" xmlns="http://www.w3.org/2000/svg" viewBox="0 0 800 800"><defs><style>.cls-1{fill:#939598;}</style></defs><title>icons</title><path class="cls-1" d="M632.59,630.89a1.69,1.69,0,0,1-1.71,1.71h-110v41.69H674.28V516.89H632.59Z"/><path class="cls-1" d="M520.92,125.71V167.4h110a1.69,1.69,0,0,1,1.71,1.71V275.22h41.69V125.71Z"/><path class="cls-1" d="M167.41,169.29a1.69,1.69,0,0,1,1.71-1.71h110V125.71H125.72V275.37h41.69Z"/><path class="cls-1" d="M167.59,630.87v-114H125.72v157.4H279.08V632.58H169.3A1.69,1.69,0,0,1,167.59,630.87Z"/><path class="cls-1" d="M518.9,340.14l-7.76-57.2c-4.15-30.56-27.29-52.73-55-52.73H324.64c-27.74,0-50.89,22.18-55,52.73l-7.77,57.2c-16.32,2.76-28.66,18.32-28.66,36.9v83.72c0,16.27,11.74,29.58,26.41,30.28v31.72c0,10.12,7.65,18.36,17,18.36h46.45c9.4,0,17-8.23,17-18.36V491.07H440.62v31.69c0,10.12,7.65,18.36,17,18.36h46.45c9.4,0,17-8.23,17-18.36V491c14.67-.69,26.41-14,26.41-30.28V377C547.57,358.45,535.22,342.9,518.9,340.14Zm-44.2,164.27V491.07h12.36v13.34Zm-181,0V491.07H306v13.34Zm2.68-164.7,7-51.43c1.68-12.37,10.64-21.35,21.31-21.35H456.11c10.67,0,19.63,9,21.31,21.35l7,51.44ZM513.48,377v77.32H267.27V377a1.35,1.35,0,0,1,.15-.63H513.33A1.35,1.35,0,0,1,513.48,377Z"/></svg>