<?xml version="1.0" encoding="utf-8"?>
<!-- Generator: Adobe Illustrator 21.1.0, SVG Export Plug-In . SVG Version: 6.00 Build 0)  -->
<svg version="1.1" id="Layer_1" xmlns="http://www.w3.org/2000/svg" xmlns:xlink="http://www.w3.org/1999/xlink" x="0px" y="0px"
	 viewBox="0 0 800 800" style="enable-background:new 0 0 800 800;" xml:space="preserve">
<style type="text/css">
	.st0{fill:#F80E19;}
</style>
<g>
	<path class="st0" d="M426,250c0-14.3-11.7-26-26-26c-14.3,0-26,11.7-26,26v7h-8.7c-41,0-74.3,34.5-74.3,77c0,21.7,5.8,39.2,17.2,52
		c10.6,11.9,24,17.6,33.1,20.9l32.7,11.4v72.4h-1.7c-16.4,0-29.7-14.5-29.7-32.3c0-14.3-11.7-26-26-26s-26,11.7-26,26
		c0,46.5,36.6,84.3,81.7,84.3h1.7v7.3c0,14.3,11.7,26,26,26c14.3,0,26-11.7,26-26v-7.3h9c41,0,74.3-34.5,74.3-77
		c0-21.7-5.8-39.2-17.2-52c-10.6-11.9-24-17.6-33.2-20.9l-33-11.5V309h2c16.4,0,29.7,14.5,29.7,32.3c0,14.3,11.7,26,26,26
		s26-11.7,26-26c0-46.5-36.6-84.3-81.7-84.3h-2V250z M435,490.7h-9v-54.3l15.7,5.5c10.8,3.9,15.6,6.3,15.6,23.8
		C457.3,479.5,447.3,490.7,435,490.7z M365.3,309h8.7v54.2l-15.3-5.4C347,353.7,343,351.4,343,334C343,320.2,353,309,365.3,309z"/>
	<path class="st0" d="M733.3,374c-14.3,0-26,11.7-26,26c0,169.5-137.9,307.3-307.3,307.3C230.5,707.3,92.7,569.5,92.7,400
		C92.7,230.5,230.5,92.7,400,92.7c14.3,0,26-11.7,26-26s-11.7-26-26-26c-48.5,0-95.5,9.5-139.8,28.3c-42.8,18.1-81.2,44-114.2,77
		c-33,33-58.9,71.4-77,114.2C50.2,304.5,40.7,351.5,40.7,400c0,48.5,9.5,95.5,28.3,139.8c18.1,42.8,44,81.2,77,114.2
		c33,33,71.4,58.9,114.2,77c44.3,18.8,91.4,28.3,139.8,28.3c48.5,0,95.5-9.5,139.8-28.3c42.8-18.1,81.2-44,114.2-77
		c33-33,58.9-71.4,77-114.2c18.8-44.3,28.3-91.4,28.3-139.8C759.3,385.7,747.7,374,733.3,374z"/>
	<path class="st0" d="M641,125.5h3.7c5.4,0,18.7-1.8,24.1-18.1c2.7-7.9,9.2-11.7,19.8-11.7c13.1,0,21.3,6.3,21.3,16.5
		c0,2.6-0.8,11.2-11.3,14.7c-42,14.1-41.7,44.3-41.4,76.2l0,1c0,14.2,9.9,24.1,24.1,24.1h2.6c14.2,0,24.1-10.1,24.1-24.6
		c0-12.4,0.2-20.9,1.3-24.9c0.6-2.4,1.1-2.5,3.6-3.4c40.3-13.7,48.7-41.8,48.7-63c0-19-6.4-35.4-18.6-47.5
		c-13-12.9-31.8-19.7-54.3-19.7c-36.2,0-64,20.7-70.8,52.8l-0.1,0.4c-1.3,7.3,0.3,14.1,4.6,19.3C626.6,122.7,633.3,125.5,641,125.5z
		"/>
	<path class="st0" d="M681.8,250.1c-17,0-30.9,13.7-30.9,30.6c0,17,13.9,30.9,30.9,30.9c16.9,0,30.6-13.9,30.6-30.9
		C712.4,263.8,698.7,250.1,681.8,250.1z"/>
</g>
</svg>
