<?xml version="1.0" encoding="UTF-8"?>
<svg id="Layer_1" xmlns="http://www.w3.org/2000/svg" version="1.1" viewBox="0 0 800 800">
  <!-- Generator: Adobe Illustrator 29.3.1, SVG Export Plug-In . SVG Version: 2.1.0 Build 151)  -->
  <defs>
    <style>
      .st0 {
        fill: none;
        stroke: #00c46f;
        stroke-miterlimit: 10;
        stroke-width: 25px;
      }

      .st1 {
        fill: #00c46f;
      }
    </style>
  </defs>
  <path class="st1" d="M602.8,381.7c7.9-45.7,5.3-80-7.8-102.3-7-12-16.7-20.7-28.7-25.8-11.1-31.4-32.5-57.6-61.9-76.1-29.4-18.5-66.5-28.6-104.3-28.6-.3,0-.6,0-.9,0h-.3c-38.3.2-75.6,10.8-105.1,29.7-29.2,18.8-50.2,45.2-61,76.7-12,5.3-21.6,14.1-28.4,26.1-12.6,22-14.9,55.7-7,100.2,0,0,6.2,37.9,17.1,67,5.3,16.2,10,28.6,12.2,34.3,12.9,51.5,36.3,94.3,67.8,123.8,30.9,29,67.7,44.3,106.5,44.3h.8c39.1-.2,76-15.9,106.8-45.5,31.1-29.9,54.1-72.9,66.4-124.5,2.1-5.4,6.4-17.1,11.2-32.4,9.8-26,16.6-67,16.6-67ZM521,448.7c1,7.3,2,14.9,2.8,22.8-19.2,77.3-67.1,127.3-122.1,127.6-.3,0-.5,0-.8,0-54.9-.1-103-49.6-123-126.4.8-8.3,1.7-16.3,2.7-24.1,3.1-23.2,7.8-45.6,14.3-67,2-6.2,4.1-12,6.4-17.5,7.3-17.6,14.2-26.5,17.7-30.2,35.7-7.8,126.7-8.2,162.4-.8,3.5,3.7,10.5,12.4,18,30,2.5,5.7,4.8,11.9,6.9,18.5,0,0,10.6,36.2,14.8,67ZM553.6,359.4c-4.2-12-8.9-22.9-14-32.6-14.9-28.1-29.4-37.8-33.5-40.2-1.8-1-3.7-1.8-5.8-2.4-42.3-11.8-158.8-11.2-201.1,1.1-1.9.6-3.9,1.4-5.7,2.5-4.1,2.4-18.4,12.3-33,40.5-5,9.7-9.6,20.7-13.7,32.7-5-35.7.5-49.7,2.8-53.7,1.9-3.3,4.1-4.8,8.2-5.4,10.7-1.6,19.1-9.4,21.5-19.9,12.7-55.6,69.4-80.7,119.9-81,.3,0,.6,0,.8,0h.2c50.2,0,106.8,24.7,120.1,79.8,2.6,10.5,11.1,18.2,21.7,19.6,4.1.6,6.3,2,8.3,5.3,2.4,4,8,17.9,3.4,53.6Z"/>
  <rect class="st0" x="80.1" y="80.1" width="639.8" height="639.8" rx="157.1" ry="157.1"/>
</svg>